<?xml version="1.0"?>
<svg width="29700" height="21000" xmlns="http://www.w3.org/2000/svg" xmlns:svg="http://www.w3.org/2000/svg" clip-rule="evenodd">
 <defs>
  <style type="text/css">
   <![CDATA[
    .fil1 {fill:none}
    .fil2 {fill:#2B2A29}
    .fil0 {fill:#2B2A29}
   ]]>
  </style>
 </defs>
 <g class="layer">
  <title>Layer 1</title>
  <g id="Слой_x0020_1">
   <metadata id="CorelCorpID_0Corel-Layer"/>
   <g id="_2459335244144">
    <path class="fil0" d="m4887.092349,11259.121986l659.981949,-659.981949l30.376377,-22.451367l-61.244886,61.227916c-420.36494,610.361543 -1135.465589,5236.038944 1588.413012,2790.944212c280.328143,-305.952909 588.266547,-670.537316 926.207987,-1100.914581c827.730826,-1054.077262 2709.148604,-3267.768485 3288.488908,-4899.268437c104.874867,-436.21496 173.247171,-747.920713 173.247171,-854.356824l659.964979,-659.981949c0,255.840371 -63.247351,544.636566 -173.230201,854.356824c-497.222265,2068.003402 -1820.121982,6951.167268 -628.315849,6219.402036c1088.71312,-1299.973188 2562.917742,-2876.218679 3188.382623,-4643.224425c95.218912,-804.923088 224.242151,-1813.384874 276.781404,-1865.941098l659.981949,-659.981949c14.984548,-14.967578 23.74109,47.719761 23.74109,214.925597c0.01697,565.95094 -111.662884,1116.815512 -300.454615,1650.35367c-63.06068,533.012086 -111.357423,976.999326 -112.833817,995.055452c-39.947482,488.822094 -683.587279,3577.217223 -650.580545,4065.275665c100.089315,-106.317321 199.703468,-208.32425 298.418209,-307.055961l659.981949,-659.981949c185.295902,-185.278931 367.520225,-359.086114 544.246255,-528.616845c824.693189,-890.808477 1411.737892,-1922.824683 1411.737892,-4121.276807c0,-3932.298406 -7342.224943,-5101.602262 -10335.723591,-4064.613833c-1554.557776,538.54432 -2758.548399,1202.71787 -3701.200358,2037.915516c-1256.037746,1419.306532 -1947.685796,3269.261849 -2398.376203,5714.831742c-367.503255,1994.183714 744.051543,7172.829972 3840.880784,7172.829972c5198.976369,0.01697 8030.478985,-1465.80445 12004.269146,-4582.04742c214.297705,-168.054338 437.318013,-361.292219 666.074195,-575.691745c337.228698,-357.032739 680.430851,-749.481957 1021.002648,-1165.824997c105.97792,-439.405328 211.514618,-800.510877 257.350705,-921.948506c763.108902,-2021.590334 2114.060099,-7857.503334 3004.087954,-8831.108652l121.183078,-127.071683l659.964979,-659.964979c1672.788067,-1672.788067 525.375567,3046.139721 421.909214,3399.23541c-431.751839,1473.50885 -1541.066591,3432.530634 -2818.147191,5197.754526c1930.664843,-1422.59872 1650.54034,1614.495968 282.7888,2982.247509l-659.981949,659.981949c-373.22216,373.22216 -827.391425,622.104813 -1339.700059,622.104813c-378.618633,0 -185.974703,-1215.428433 34.398278,-2168.143627c-221.425123,246.388057 -441.492643,479.4716 -657.843724,695.822681l-659.981949,659.981949c-343.575494,343.575494 -677.766555,645.319832 -993.086927,892.590331c-3973.790162,3116.25994 -6805.292777,4582.08136 -12004.252176,4582.06439c-3096.84621,0 -4208.401009,-5178.646258 -3840.897754,-7172.829972c487.43055,-2644.90002 1256.631698,-4593.213708 2716.853003,-6053.451984l659.981949,-659.981949c988.555926,-988.538955 2293.789827,-1753.412742 4042.705507,-2359.260253c2993.481677,-1037.005399 10335.723591,132.298457 10335.723591,4064.596863c0,2437.475182 -721.600176,3441.100506 -1688.638087,4408.138417l-659.981949,659.981949c-179.712757,179.712757 -367.893566,358.152761 -561.487819,544.280195c-202.792016,215.248028 -407.637407,448.314601 -611.413686,708.261722l-9.180793,10.487487l-659.964979,659.981949c-240.787943,240.770973 562.13268,-3571.735899 606.899654,-4119.511923c0.424251,-5.243743 4.836462,-46.548828 12.337221,-115.107803c-747.224941,1199.934783 -1748.96659,2284.626004 -2525.498796,3220.880256c-99.393543,119.842445 -190.471765,220.746322 -273.726797,304.001354l-656.061869,656.061869l-3.90311,3.92008c-1432.611045,1432.594075 -549.523938,-2362.942753 66.64136,-4868.807209c-789.463379,1213.867189 -1805.358044,2427.055576 -2355.577754,3127.748659c-482.152867,614.010102 -903.230548,1094.160504 -1270.190762,1461.120718l-659.981949,659.981949c-3168.086452,3168.086452 -2301.850597,-2101.638028 -1873.543677,-2529.944948zm14749.835463,-923.56066c-21.195584,58.665439 -43.833622,119.197583 -72.462084,181.341881l-323.788424,323.771454c-44.427573,55.237491 -88.906056,110.08467 -133.418479,164.507599c-233.847195,969.719178 -469.713825,2321.094626 -70.510529,2321.094626c364.160157,0 698.928199,-125.78196 996.124565,-332.544966c1010.379401,-1371.65465 1155.35448,-3595.018798 -270.163087,-2823.713365c-41.797216,55.458101 -83.747163,110.627712 -125.78196,165.542771zm-412.43993,212.07463l319.766524,-319.766524c1230.22631,-1724.393968 2288.325473,-3612.905223 2707.57039,-5043.717444c94.743751,-323.313263 1064.327168,-4306.233308 -56.985405,-3691.578344c-884.444711,1455.079383 -2115.281943,6696.61662 -2830.195922,8590.54132c-28.424822,75.346992 -79.877993,243.112839 -140.155587,464.520992z" id="svg_1"/>
   </g>
   <path class="fil1" d="m5247.451216,10906.671159c-461.042133,211.294008 -1632.569064,7134.952836 3113.358062,1091.292567c984.856456,-1254.188011 3461.736079,-4150.142851 3461.736079,-5753.642231c0,673.303433 -2726.203497,9529.358049 -239.090938,6530.700508c1417.898018,-1709.52821 3586.431956,-3913.95379 3586.431956,-6411.163524c0,-1142.134816 -408.961071,2592.309856 -413.305402,2645.409122c-45.293045,554.411311 -867.135267,4452.65084 -597.735831,4109.024436c1723.290915,-2198.146663 3521.521541,-2472.840752 3521.521541,-6320.645314c0,-3932.298406 -7342.224943,-5101.619232 -10335.70662,-4064.613833c-4332.384144,1500.847589 -5942.162441,3977.285991 -6759.558511,8412.729207c-367.503255,1994.166744 744.034573,7172.829972 3840.880784,7172.829972c5198.976369,0 8030.462015,-1465.80445 12004.269146,-4582.06439c2210.806316,-1733.727492 5349.670353,-6145.667198 6151.555803,-8882.375152c105.876099,-361.292219 1304.75874,-5293.58436 -543.075322,-3272.180696c-890.027855,973.622288 -2240.962082,6809.518318 -3004.070984,8831.125622c-146.994514,389.445521 -908.033071,3243.161923 -327.895174,3243.161923c2443.380757,0 3564.5406,-5661.443986 886.362325,-3472.002955c-224.836102,183.819508 -242.145546,409.724723 -358.644893,662.629276" id="svg_2"/>
   <g id="_2459335243808">
    <path class="fil2" d="m22314.053944,11831.928824c152.238257,-137.50826 802.564252,-554.309491 1358.146496,-1017.065598c358.882473,-486.921449 288.185273,-900.379581 -942.176797,-953.003685c-41.220235,-1.747914 -83.509583,4.615852 -126.596522,18.412497c-429.070572,683.078178 -788.241536,1734.609934 -786.476651,2448.760261l497.103475,-497.103475zm5513.44824,2023.219458l-16.715493,11.539629l34.873439,-34.890409c177.947873,-272.521923 519.724543,-2009.541604 637.988773,-2296.284423c484.545643,-1174.751239 256.994334,-1927.321744 -385.627261,-1528.237239c-126.274091,166.374303 -259.658631,362.242542 -399.203296,589.895671c-2.002465,3.292188 -4.03887,6.872867 -6.058305,10.266876c-45.937907,336.142615 -123.355244,742.91455 -238.174556,1229.615389c-233.168393,988.318345 -357.321229,1388.692574 -403.530657,1434.918971l-659.981949,659.981949c-116.991478,116.991478 265.038134,-2034.029376 641.824003,-2664.721031c164.694269,-1204.363965 -75.652453,-1499.405135 -457.716005,-1290.011773c-211.260068,285.334306 -424.098349,634.068693 -612.720379,1006.510231c-264.325393,1081.416002 -608.376048,2349.349748 -685.148523,2426.122224l-659.981949,659.981949c-35.637091,35.637091 -13.677855,-185.397722 100.598416,-800.867248c95.252852,-513.055316 315.201582,-1093.345942 584.567078,-1625.221036c87.124202,-356.472727 165.593681,-692.700193 222.952427,-959.265631c-72.563905,79.793143 -147.707256,157.991102 -224.547611,234.814488l-659.981949,659.981949c-339.621474,339.621474 -711.706641,652.5321 -1034.782323,957.042555c-3632.132282,3423.09529 -2458.365306,-1302.739305 -1321.830604,-2439.274007l659.981949,-659.981949c153.18858,-153.18858 305.715328,-241.161284 445.718184,-235.187828c1483.962396,63.484932 1280.98371,651.836329 671.91189,1260.908149l-659.981949,659.981949c-486.955389,486.955389 -1233.484559,987.164382 -1584.985063,1242.953843c18.124006,896.15404 632.54139,1222.691611 2449.167542,-489.382105c208.27334,-196.30946 436.927702,-396.097778 664.10567,-604.286268c308.820846,-351.653235 562.896332,-734.463469 684.283051,-1165.977727l659.981949,-659.981949c33.176434,0.01697 -46.480948,405.261601 -173.671422,956.550424c55.899322,-65.691037 111.153783,-126.053481 165.23731,-180.137008l659.981949,-659.981949c509.237056,-509.237056 915.160489,-469.306544 799.713285,762.107669c19.210089,-20.279202 38.182597,-39.828691 56.917525,-58.563619l659.981949,-659.981949c874.008134,-874.025104 1258.057181,-81.133776 700.981574,1269.46105c-122.421892,296.823025 -484.375943,2147.847455 -656.14672,2319.635203l-659.981949,659.964979z" id="svg_3"/>
   </g>
   <path class="fil1" d="m21984.071454,12161.911313c387.103655,-349.65077 3994.833015,-2505.185655 1075.934678,-2630.034262c-1178.484649,-50.401028 -3245.605609,6558.9726 876.112419,2674.444865c736.448964,-694.074766 1727.499486,-1431.830423 2008.387641,-2430.228974c128.887478,0 -1444.337345,6113.152596 -896.595261,3162.876648c420.704341,-2266.026836 3273.198899,-5843.481639 2076.692064,-771.933324c-826.356253,3502.616913 -283.331841,-379.178645 244.232861,-1239.882265c1365.664225,-2228.06485 2141.73824,-1411.296671 1444.812507,278.376588c-126.562582,306.835351 -509.067355,2274.460948 -672.879182,2331.174832" id="svg_4"/>
  </g>
 </g>
</svg>